<svg width="546" height="340" viewBox="0 0 546 340" fill="none" xmlns="http://www.w3.org/2000/svg">
<path d="M89.6508 241.332L77.7808 245.012L65.8908 248.632L65.9608 248.612C62.9808 249.762 60.5508 252.142 59.4208 255.022C59.1108 255.752 58.9408 256.432 58.7508 257.282L58.1908 259.822L57.6308 262.362L57.3408 263.632C57.2408 264.062 57.1108 264.592 56.9408 265.052C56.2908 266.952 55.1708 268.702 53.7008 270.112L49.9408 273.712L46.1808 277.302L45.2208 278.212C44.8508 278.542 44.4908 278.872 44.0908 279.182C43.3108 279.802 42.4808 280.352 41.6108 280.822C38.1408 282.752 33.9008 283.462 29.9908 282.822L27.4208 282.442L26.1308 282.252C25.6208 282.162 25.0808 282.072 24.5708 281.922C22.4908 281.382 20.5508 280.342 18.9008 278.952C17.2508 277.552 15.9308 275.772 15.0408 273.782C14.8308 273.282 14.6208 272.772 14.4708 272.252L14.3508 271.862L14.2608 271.552L14.0808 270.932L13.3508 268.432L10.4408 258.452L11.6308 260.242L8.60078 258.012C7.57078 257.222 6.68079 256.672 5.36079 255.522C2.98079 253.382 1.26078 250.502 0.480781 247.372C0.0907813 245.812 -0.0591796 244.182 0.0208204 242.562C0.0408204 242.162 0.0708057 241.752 0.130806 241.352L0.210823 240.752L0.280769 240.292L0.570808 238.432L1.15076 234.712C1.34076 233.482 1.5708 232.142 1.8108 230.872C2.8108 225.722 4.25081 220.662 6.13081 215.752C6.60081 214.522 7.1008 213.302 7.6208 212.102L8.42078 210.302L9.20081 208.592L12.3308 201.752L37.7508 147.212L50.5908 120.002L56.9508 106.572C58.5208 102.982 58.8908 98.8824 58.0108 95.0724C57.8108 94.1124 57.4808 93.1924 57.1308 92.2724L56.8408 91.5924L56.4608 90.7624L55.6808 89.0524L52.5808 82.2024L46.3808 68.4924L43.2808 61.6424L41.7308 58.2124L40.9608 56.4924L40.9108 56.3824L40.7808 56.0724C40.6908 55.8324 40.6008 55.5824 40.5208 55.3324C40.3808 54.8224 40.2808 54.2524 40.2508 53.6924C40.1908 52.5424 40.4508 51.3724 40.9208 50.3524C41.9008 48.3324 43.6408 46.9224 45.8108 46.4024C46.9008 46.1624 48.1008 46.1324 49.2008 46.4424C49.7608 46.5724 50.2608 46.8024 50.7608 47.0424C50.9808 47.1724 51.2108 47.3024 51.4208 47.4524L51.7408 47.6724L51.8708 47.7724L54.8408 50.0824L60.7708 54.7124L72.6308 63.9624L74.1108 65.1224C74.5408 65.4624 74.8708 65.7024 75.2808 65.9724C76.0608 66.4924 76.9008 66.9324 77.7708 67.2924C79.5108 68.0124 81.3908 68.3924 83.2808 68.4124C84.0908 68.4224 85.5308 68.3224 86.7408 68.2624L90.5008 68.0624L98.0108 67.6524C102.941 67.3624 108.241 67.1124 113.391 67.2324C134.131 67.6024 154.631 72.9824 173.001 82.2624C208.631 100.722 244.211 119.292 279.411 138.602C242.621 122.522 206.191 105.702 169.821 88.7824C160.961 84.6924 151.691 81.4924 142.181 79.4424C137.431 78.4124 132.631 77.6324 127.801 77.1124C122.981 76.5724 118.131 76.3024 113.281 76.3024C108.401 76.2824 103.681 76.6024 98.6108 77.0024L91.1108 77.5624L87.3608 77.8424C86.0708 77.9224 85.0108 78.0524 83.3108 78.0924C80.1908 78.1224 77.0508 77.5624 74.1308 76.4224C72.6708 75.8524 71.2608 75.1524 69.9408 74.3124C69.2908 73.9024 68.6008 73.4124 68.0408 72.9924L66.5408 71.8624L54.5808 62.7324L48.6008 58.1624L45.6108 55.8824C45.6008 55.8724 45.5108 55.8024 45.5608 55.8424L45.6808 55.9324C45.7608 55.9924 45.8508 56.0424 45.9508 56.0824C46.1608 56.2124 46.3808 56.2724 46.6308 56.3524C47.1408 56.4724 47.6908 56.5024 48.1708 56.3724C49.1108 56.1324 49.8008 55.5924 50.2308 54.7024C50.4608 54.2524 50.5608 53.7124 50.5408 53.1824C50.5308 52.9324 50.4908 52.6824 50.4308 52.4624C50.4108 52.3624 50.3708 52.2624 50.3308 52.1624C50.3208 52.1324 50.2608 52.0224 50.2908 52.0724L50.3408 52.1824L51.1308 53.8924L52.6908 57.3124L55.8108 64.1524L62.0608 77.8324L65.1808 84.6724L65.9608 86.3824L66.3608 87.2624L66.8008 88.3224C67.3508 89.7424 67.8408 91.2024 68.1608 92.7024C69.5208 98.6724 68.9108 105.052 66.4408 110.652L65.9808 111.672L65.5708 112.522L64.7608 114.222L63.1308 117.612L59.8708 124.392L46.7608 151.472L20.2608 205.502L16.9008 212.232L16.0608 213.912L15.2808 215.522C14.7708 216.602 14.2808 217.692 13.8208 218.792C11.9708 223.192 10.5008 227.762 9.43079 232.432C9.16079 233.612 8.93081 234.742 8.70081 235.982L8.0008 239.682L7.68079 241.552L7.59077 242.012L7.54078 242.352C7.50078 242.572 7.47082 242.792 7.46082 243.012C7.38082 243.902 7.4408 244.792 7.6208 245.672C7.9808 247.432 8.90079 249.062 10.1808 250.352C10.7108 250.892 11.8808 251.782 12.8108 252.552L15.7308 254.922L16.6708 255.682L16.9208 256.712L19.3708 266.812L19.9808 269.342L20.1308 269.972L20.2108 270.292L20.2808 270.522C20.3508 270.832 20.4608 271.132 20.5708 271.442C21.0408 272.642 21.7708 273.742 22.7308 274.642C23.6808 275.532 24.8408 276.232 26.1008 276.622C26.4208 276.732 26.7308 276.792 27.0708 276.882L28.3508 277.132L30.9008 277.632C33.8008 278.262 36.7908 277.942 39.4808 276.672C40.1508 276.362 40.7908 275.982 41.4008 275.562C41.7108 275.352 42.0008 275.122 42.2908 274.892L43.2708 274.062L47.2308 270.692L51.1908 267.332C52.2808 266.402 53.1608 265.212 53.7108 263.862C53.8608 263.512 53.9508 263.202 54.0708 262.802L54.4308 261.552L55.1708 259.062L55.9108 256.572C56.1508 255.742 56.4808 254.752 56.9108 253.912C58.5808 250.442 61.7408 247.812 65.3208 246.722L65.3908 246.702L77.5208 244.002L89.6508 241.332Z" fill="white"/>
<path d="M93.4306 70.6824C90.6506 68.7424 88.2106 66.5724 85.8406 64.3424C83.4806 62.1124 81.2706 59.7824 79.1406 57.3924C77.0006 55.0124 75.0006 52.5324 73.0306 50.0324C71.0906 47.5124 69.2306 44.9424 67.4406 42.3124L67.7206 42.6824C67.9406 42.9724 68.2906 43.2224 68.7206 43.4324C69.1506 43.6224 69.6306 43.6824 70.0306 43.6624C70.8606 43.5824 71.4906 43.2424 72.0506 42.4924C72.3006 42.1224 72.4906 41.6224 72.5306 41.1824C72.5506 40.9524 72.5406 40.7424 72.5206 40.5524C72.5106 40.5024 72.5006 40.4524 72.4906 40.4124L72.5006 40.5524L72.5306 40.8224L72.7306 43.0124C73.0206 45.9224 73.1506 48.8624 73.2406 51.8024C73.2906 54.7524 73.2606 57.7124 73.0906 60.6924C72.9006 63.6824 72.6306 66.6824 72.0006 69.7424C70.4706 67.0224 69.2806 64.2524 68.1806 61.4624C67.0906 58.6724 66.1606 55.8524 65.3006 53.0224C64.4906 50.1824 63.7106 47.3424 63.0806 44.4824L62.6006 42.3324L62.5406 42.0624L62.5106 41.9324L62.4606 41.5224C62.4006 40.9624 62.3906 40.3924 62.4706 39.8024C62.6006 38.6324 63.0706 37.4324 63.7606 36.4824C64.4506 35.5024 65.3406 34.7524 66.3206 34.2324C67.3006 33.6924 68.3806 33.3924 69.5306 33.3324C70.6606 33.2624 71.8806 33.4724 72.9706 33.9624C74.0906 34.4324 74.9906 35.2024 75.7106 36.0224L75.8206 36.1424L76.0006 36.3924C77.8306 38.9924 79.5906 41.6324 81.2606 44.3424C82.9106 47.0624 84.5306 49.8024 86.0006 52.6524C87.4906 55.4824 88.8906 58.3724 90.1506 61.3724C91.4206 64.3424 92.5906 67.4024 93.4306 70.6824Z" fill="white"/>
<path d="M224.741 267.012C219.841 256.942 214.941 246.912 209.791 237.032L205.891 229.652L201.851 222.352L197.711 215.132C196.281 212.762 194.891 210.362 193.421 208.022C187.541 198.672 181.291 189.562 174.111 181.512C170.531 177.512 166.641 173.832 162.511 170.902C160.441 169.482 158.291 168.252 156.181 167.472C155.131 167.112 154.091 166.802 153.151 166.712C152.681 166.652 152.251 166.642 151.861 166.662C151.701 166.692 151.491 166.692 151.381 166.722C151.311 166.732 151.251 166.742 151.241 166.752C151.231 166.752 151.191 166.762 151.241 166.752C151.291 166.742 151.211 166.772 151.501 166.652L149.181 167.002C148.681 166.952 148.181 167.012 148.271 167.012C148.321 166.992 148.601 166.992 149.241 166.502C149.521 166.262 149.911 165.842 150.121 165.352C150.351 164.882 150.431 164.362 150.451 164.052C150.451 163.362 150.331 163.202 150.341 163.172C150.331 163.142 150.411 163.282 150.511 163.432C150.621 163.582 150.771 163.782 150.961 163.982L151.701 164.812C152.761 165.992 153.841 167.152 155.001 168.512L155.881 169.572C156.181 169.942 156.481 170.362 156.771 170.752C157.361 171.622 157.961 172.562 158.441 173.652C159.431 175.822 159.831 178.162 159.921 180.102C160.021 182.072 159.931 183.832 159.831 185.552C159.781 186.182 159.731 186.602 159.661 187.072L159.461 188.412C159.311 189.302 159.151 190.182 158.941 191.082C158.731 191.992 158.501 192.912 158.141 193.942C157.961 194.462 157.751 195.012 157.421 195.672L157.141 196.202C157.021 196.412 156.911 196.592 156.751 196.822C156.421 197.272 156.031 197.822 155.151 198.482C154.901 198.662 154.591 198.842 154.301 198.992C154.031 199.142 153.551 199.322 153.151 199.422L152.761 199.512L152.681 199.522L152.521 199.552L151.901 199.672L150.641 199.902C149.791 200.052 148.931 200.182 148.041 200.302C146.271 200.542 144.391 200.662 142.651 200.692L140.261 200.712C139.511 200.732 138.761 200.752 138.021 200.792C136.541 200.872 135.091 201.002 133.691 201.212C130.921 201.612 128.321 202.362 126.761 203.452C125.971 203.992 125.461 204.542 125.041 205.242C124.621 205.942 124.311 206.882 124.081 208.092C123.611 210.512 123.621 213.722 123.241 217.312C123.041 219.112 122.721 221.042 122.101 223.022C121.491 224.992 120.561 227.002 119.301 228.782C119.001 229.222 118.641 229.682 118.321 230.062L117.371 231.162C116.721 231.872 116.051 232.542 115.371 233.192C114.001 234.472 112.551 235.612 111.071 236.652C108.121 238.732 105.041 240.402 101.951 241.882C95.7508 244.802 89.4308 246.952 83.2108 248.882L78.5907 250.312L76.4007 251.002C76.1307 251.072 75.9007 251.212 75.6807 251.372C75.2407 251.682 74.9207 252.152 74.8007 252.652C74.7307 252.902 74.7107 253.152 74.7207 253.402C74.7507 253.522 74.7507 253.652 74.7907 253.782C74.8007 253.832 74.7908 253.812 74.8208 253.922L74.9107 254.212L75.1007 254.782L76.5808 259.382L76.6007 259.452C76.9707 260.192 76.3807 264.322 76.5907 262.502L76.5507 262.622L76.4707 262.862L76.3208 263.342C76.2208 263.662 76.1008 263.992 76.0208 264.312C75.8908 264.952 75.6707 265.602 75.6007 266.242C75.3407 267.532 75.3307 268.792 75.3507 270.042C75.4207 271.282 75.6508 272.502 76.0008 273.682C76.7508 276.032 78.0907 278.272 79.9307 280.262C81.7707 282.242 84.0507 283.992 86.5307 285.432C87.7607 286.142 89.1107 286.812 90.3007 287.302L92.1607 287.802C92.9007 288.012 93.6607 288.172 94.4207 288.352C97.4507 289.052 100.531 289.642 103.661 290.152C109.921 291.172 116.331 292.022 122.781 293.172C129.221 294.342 135.721 295.832 141.941 298.232C145.051 299.412 148.081 300.822 150.991 302.412C153.921 303.972 156.691 305.822 159.361 307.762C164.681 311.692 169.361 316.352 173.531 321.352C177.691 326.372 181.291 331.782 184.501 337.372C180.661 332.182 176.541 327.242 172.041 322.702C167.551 318.162 162.571 314.172 157.291 310.782C154.621 309.132 151.891 307.592 149.031 306.332C146.191 305.032 143.271 303.932 140.281 303.042C134.321 301.192 128.141 300.102 121.851 299.342C115.561 298.572 109.151 298.162 102.641 297.402C99.3908 297.032 96.1108 296.562 92.8308 295.962C92.0108 295.802 91.1907 295.672 90.3707 295.482L89.1408 295.212L88.5208 295.082L88.2108 295.012L88.1308 294.992C87.9708 294.942 88.3808 295.072 87.7508 294.882L87.5407 294.812C85.7207 294.162 84.1607 293.432 82.5607 292.602C79.4107 290.922 76.4208 288.842 73.7708 286.202C71.1408 283.562 68.8607 280.282 67.5608 276.512C66.9208 274.632 66.5008 272.672 66.3308 270.702C66.2108 268.742 66.2108 266.762 66.5208 264.872C66.6208 263.902 66.8607 263.002 67.0407 262.072C67.1407 261.612 67.2807 261.172 67.4107 260.722L67.6007 260.052L67.7008 259.712L67.7508 259.542C67.9708 257.672 67.4108 261.752 67.7608 262.442L67.7307 262.372L66.1107 257.822L65.9107 257.252L65.8108 256.972L65.6707 256.532C65.4607 255.892 65.3407 255.222 65.2407 254.552C65.0707 253.202 65.1508 251.822 65.4508 250.502C66.0408 247.852 67.5607 245.462 69.6707 243.802C70.7207 242.972 71.9107 242.292 73.1607 241.862L75.5608 241.052L80.1408 239.532C86.1708 237.502 92.0707 235.432 97.4907 232.772C100.191 231.442 102.771 229.982 105.061 228.312C106.211 227.482 107.281 226.602 108.271 225.692C108.761 225.232 109.221 224.762 109.661 224.282L110.291 223.552C110.491 223.312 110.631 223.132 110.781 222.912C111.971 221.242 112.581 219.062 112.871 216.242C113.201 213.432 113.101 210.162 113.791 206.232C114.151 204.272 114.801 202.092 116.031 200.012C117.241 197.932 119.041 196.122 120.931 194.872C122.831 193.612 124.781 192.802 126.661 192.222C128.541 191.642 130.381 191.282 132.171 191.022C133.971 190.762 135.721 190.622 137.461 190.532C138.331 190.482 139.191 190.462 140.051 190.442L142.501 190.432C143.981 190.422 145.321 190.352 146.751 190.182C147.461 190.102 148.191 189.992 148.931 189.872L150.051 189.682L150.621 189.582L150.761 189.552L150.831 189.542C150.921 189.522 150.771 189.552 150.591 189.592C150.291 189.652 149.911 189.822 149.731 189.912C149.521 190.012 149.311 190.142 149.141 190.272C148.581 190.682 148.451 190.932 148.361 191.042C148.321 191.102 148.311 191.112 148.291 191.152C148.321 191.092 148.411 190.892 148.501 190.652C148.681 190.162 148.861 189.522 149.021 188.862C149.181 188.192 149.321 187.492 149.451 186.792L149.621 185.752C149.671 185.422 149.721 185.052 149.731 184.872C149.841 183.382 149.921 181.922 149.881 180.672C149.831 179.392 149.661 178.502 149.341 177.732C148.801 176.212 146.491 173.732 144.401 171.272L143.561 170.282C143.221 169.872 142.881 169.432 142.541 168.922C142.201 168.402 141.851 167.852 141.521 167.082C141.211 166.322 140.851 165.372 140.871 163.872C140.881 163.152 141.061 162.232 141.451 161.402C141.851 160.562 142.461 159.802 143.071 159.312C144.331 158.292 145.391 158.012 146.221 157.822C147.891 157.492 149.031 157.602 150.121 157.712L147.801 158.062C148.251 157.882 148.351 157.872 148.561 157.802C148.771 157.742 148.901 157.712 149.061 157.672C149.381 157.592 149.671 157.552 149.951 157.512C150.531 157.422 151.031 157.412 151.561 157.382C152.571 157.372 153.531 157.452 154.441 157.592C156.281 157.862 157.911 158.422 159.471 159.022C162.561 160.292 165.231 161.982 167.691 163.802C172.531 167.532 176.591 171.812 180.271 176.282C187.571 185.282 193.451 195.032 198.781 204.992C200.121 207.482 201.371 210.002 202.661 212.512C203.891 215.042 205.131 217.572 206.331 220.112L209.771 227.812L213.061 235.562C217.361 245.872 221.221 256.392 224.741 267.012Z" fill="white"/>
<path d="M398.821 339.582L401.901 333.772L401.921 333.742C404.061 330.432 406.221 327.122 408.721 323.982C411.201 320.852 414.231 317.872 417.871 315.802C421.491 313.702 425.361 312.372 429.171 311.172C432.991 309.972 436.821 308.922 440.641 307.952L446.371 306.492L449.231 305.762L449.951 305.582L450.561 305.412C450.961 305.292 451.361 305.162 451.751 305.012C454.891 303.852 457.621 301.792 459.531 299.192C464.281 292.852 469.361 286.592 475.021 280.792C476.431 279.332 477.891 277.912 479.391 276.512C480.151 275.822 480.901 275.122 481.691 274.452L482.861 273.452L483.781 272.632C486.151 270.382 488.001 267.612 489.151 264.592C489.721 263.082 490.121 261.512 490.351 259.932C490.421 259.532 490.461 259.142 490.491 258.742C490.531 258.342 490.561 257.942 490.561 257.542C490.571 257.142 490.581 256.742 490.561 256.342L490.541 255.742C490.541 255.652 490.531 255.542 490.521 255.422C490.511 255.262 490.501 255.322 490.501 255.282C490.461 254.992 490.221 254.702 489.881 254.552L487.731 253.872L484.851 252.912C477.231 250.242 469.701 247.222 462.401 243.042C458.771 240.902 455.171 238.532 451.841 235.132C450.201 233.412 448.601 231.372 447.451 228.712C446.791 227.232 446.521 225.562 446.391 224.532C446.271 223.632 446.141 222.712 445.981 221.792C444.761 214.432 442.721 207.132 439.861 200.392C438.401 197.042 436.701 193.842 434.691 190.972L433.941 189.892C433.681 189.542 433.401 189.222 433.131 188.882C432.591 188.232 432.011 187.452 431.591 187.052C430.661 186.092 429.521 185.312 428.271 184.742C427.641 184.462 426.991 184.232 426.321 184.062L423.541 183.422C421.651 183.002 419.761 182.602 417.861 182.222C414.071 181.462 410.261 180.732 406.441 180.122C402.621 179.492 398.801 178.952 394.971 178.492C391.141 178.012 387.311 177.672 383.481 177.442C379.651 177.192 375.831 177.122 372.021 177.172L369.171 177.292L368.461 177.322L367.871 177.352C367.521 177.402 367.101 177.442 366.691 177.522L365.421 177.762L364.131 178.092C363.271 178.282 362.421 178.612 361.561 178.882C354.751 181.332 348.411 185.602 343.131 191.002L339.281 195.192L335.791 199.742C334.671 201.302 333.711 202.972 332.661 204.582C331.571 206.182 330.701 207.912 329.791 209.622L328.421 212.192L327.731 213.482L327.151 214.822L324.831 220.202C323.971 221.972 323.431 223.852 322.751 225.702L320.761 231.262L321.981 225.472C322.431 223.552 322.731 221.572 323.361 219.702L325.101 214.002L325.541 212.572L326.091 211.182L327.201 208.402C330.171 201.002 334.111 193.842 339.381 187.572C340.711 186.022 342.161 184.562 343.571 183.062L345.891 181.012C346.671 180.332 347.421 179.612 348.281 179.022L350.801 177.172C351.631 176.542 352.571 176.052 353.451 175.492L354.801 174.672C355.261 174.422 355.741 174.192 356.211 173.952C357.161 173.492 358.081 172.962 359.081 172.582C360.071 172.182 361.031 171.732 362.071 171.422L363.611 170.912L365.221 170.492C365.771 170.352 366.331 170.262 366.951 170.152C367.351 170.092 367.581 170.072 367.831 170.052L368.591 169.982L371.621 169.682C375.671 169.412 379.721 169.232 383.751 169.312C391.811 169.412 399.811 170.062 407.741 171.082C411.711 171.582 415.661 172.162 419.601 172.852C421.571 173.192 423.531 173.562 425.501 173.942L428.491 174.542C429.731 174.812 430.961 175.202 432.141 175.692C434.501 176.682 436.701 178.102 438.571 179.912C439.571 180.872 440.161 181.682 440.901 182.532C441.251 182.952 441.611 183.372 441.951 183.802L442.901 185.122C445.451 188.652 447.511 192.412 449.241 196.242C450.961 200.082 452.331 204.022 453.491 207.992C454.641 211.972 455.561 215.972 456.261 220.052C456.441 221.072 456.601 222.102 456.741 223.152C456.861 224.072 456.921 224.362 457.071 224.682C457.481 225.652 458.281 226.802 459.341 227.922C461.501 230.182 464.481 232.262 467.611 234.112C473.931 237.832 481.001 240.862 488.181 243.482L490.881 244.452L492.231 244.922L493.061 245.212C493.481 245.362 493.881 245.552 494.281 245.742C497.461 247.342 499.801 250.642 500.111 254.292C500.131 254.492 500.151 254.802 500.151 254.892L500.161 255.302L500.171 256.182C500.191 256.762 500.161 257.352 500.131 257.932C500.111 258.512 500.061 259.092 499.991 259.672C499.931 260.252 499.861 260.832 499.751 261.402C499.361 263.702 498.691 265.942 497.791 268.082C495.981 272.352 493.201 276.182 489.751 279.212L488.431 280.312L487.331 281.192C486.591 281.762 485.881 282.382 485.151 282.972C483.721 284.202 482.301 285.452 480.911 286.762C475.351 292.002 470.141 297.672 465.121 303.662C462.111 307.202 458.071 309.752 453.731 311.022C453.191 311.192 452.641 311.322 452.091 311.442L451.261 311.612L450.531 311.742L447.631 312.262L441.831 313.312C437.981 314.032 434.121 314.712 430.351 315.542C426.581 316.372 422.851 317.302 419.491 318.872C416.121 320.422 413.121 322.692 410.411 325.452C409.711 326.112 409.071 326.842 408.411 327.562C407.741 328.272 407.101 329.012 406.471 329.752C405.171 331.212 403.911 332.732 402.631 334.222L402.651 334.192L398.821 339.582Z" fill="white"/>
<path d="M245.961 121.862C254.291 114.922 263.091 108.902 272.011 103.102C280.951 97.3424 290.061 91.9024 299.301 86.7224C308.541 81.5324 317.931 76.6224 327.431 71.9324C332.191 69.5924 336.981 67.3124 341.791 65.0724L349.021 61.7124C350.221 61.1424 351.431 60.5824 352.611 59.9824C353.821 59.4124 354.961 58.7824 356.091 58.0124C355.411 59.1924 354.471 60.2324 353.561 61.2424C352.621 62.2424 351.651 63.1924 350.651 64.1124C349.661 65.0524 348.631 65.9224 347.621 66.8224L344.511 69.4124C340.321 72.8024 335.981 75.9524 331.591 78.9924C322.781 85.0524 313.691 90.6124 304.401 95.8124C295.111 101.002 285.631 105.832 275.931 110.262C266.211 114.662 256.351 118.772 245.961 121.862Z" fill="white"/>
<path d="M417.521 70.6723C412.411 72.0523 407.081 72.6323 401.751 72.6423C399.081 72.6423 396.411 72.4624 393.741 72.1224C391.081 71.7324 388.441 71.2023 385.841 70.4523C380.671 68.9123 375.631 66.6224 371.191 63.3924C366.751 60.1724 362.871 56.1624 359.711 51.6724C356.541 47.1824 354.071 42.2324 352.141 37.1224L351.441 35.1924C351.321 34.8424 351.211 34.6124 351.091 34.1724C350.961 33.7724 350.871 33.3624 350.791 32.9424C350.481 31.2824 350.501 29.5624 350.881 27.9024C351.251 26.2424 351.981 24.6523 353.011 23.2623C353.261 22.9123 353.551 22.5923 353.831 22.2623C354.131 21.9523 354.441 21.6323 354.701 21.4123C355.231 20.9123 355.781 20.4323 356.351 19.9823C360.831 16.2623 366.731 13.9124 372.751 13.7424C378.791 13.5524 384.561 15.3724 389.631 17.9424L389.771 18.0123L390.041 18.1924C393.081 20.2824 396.281 22.3424 399.471 24.3124C402.671 26.2724 405.911 28.1623 409.201 29.9123C412.481 31.6623 415.811 33.2924 419.141 34.6224C420.801 35.2824 422.481 35.8824 424.101 36.3124C425.711 36.7424 427.321 37.0323 428.571 37.0123L427.861 37.0624C431.911 36.2724 436.201 35.2624 440.341 34.1824C442.421 33.6024 444.501 33.0623 446.561 32.4123L449.651 31.4724L452.721 30.4624C460.891 27.7324 468.881 24.5124 476.511 20.6924C480.351 18.8124 484.021 16.6824 487.651 14.4924L492.951 11.0324C494.651 9.79237 496.301 8.51235 497.991 7.26235C498.851 6.66235 499.621 5.95235 500.401 5.26235L502.741 3.20235L503.911 2.17235L504.201 1.91234L504.401 1.73235C504.621 1.53235 504.861 1.34234 505.111 1.16234C506.131 0.432341 507.561 -0.0376316 508.931 0.00236836C510.311 0.0423684 511.551 0.502349 512.561 1.23235C513.571 1.96235 514.421 3.01234 514.891 4.35234C515.371 5.68234 515.341 7.27235 514.891 8.51235C514.781 8.80235 514.661 9.08235 514.521 9.36235L514.381 9.62236L514.331 9.71236L514.121 10.0723C511.951 13.9723 509.701 17.8224 507.391 21.6424C502.741 29.2624 497.841 36.7524 492.561 44.0224C487.281 51.2924 481.571 58.3223 475.111 64.8523L472.661 67.2824C471.841 68.0924 470.941 68.8424 470.081 69.6224C469.191 70.3824 468.381 71.1923 467.441 71.9123L464.651 74.0924C463.751 74.8424 462.711 75.4824 461.711 76.1524L460.201 77.1423L459.441 77.6323L459.251 77.7524C459.301 77.7324 459.371 77.6823 459.431 77.6423C459.541 77.5523 459.671 77.4524 459.791 77.3324C460.281 76.8424 460.601 76.0623 460.621 75.4123C460.641 74.7423 460.441 74.1423 460.031 73.6023C459.631 73.0623 458.951 72.6923 458.451 72.6023L460.121 72.9823C464.771 74.0923 469.361 75.7024 473.721 78.0624C478.061 80.4324 482.181 83.6323 485.391 87.7623L485.781 88.2623L486.021 88.8024C493.831 106.582 502.151 124.282 511.051 141.542C515.471 150.192 520.061 158.762 525.011 167.032C527.501 171.152 530.081 175.212 532.861 179.032C534.241 180.952 535.691 182.792 537.191 184.502C537.561 184.952 537.951 185.332 538.341 185.732C538.731 186.122 539.101 186.562 539.501 186.912L540.681 187.952L541.521 188.682C541.861 188.962 542.151 189.292 542.451 189.602C544.821 192.212 545.781 195.872 545.201 199.242C544.921 200.932 544.231 202.552 543.241 203.932C542.701 204.692 542.301 205.082 541.851 205.602C541.421 206.112 540.951 206.582 540.481 207.052C536.751 210.832 532.321 213.802 527.611 215.962C522.901 218.152 517.941 219.592 512.931 220.392C507.911 221.222 502.911 221.462 497.861 221.352L495.971 221.312C495.221 221.292 494.671 221.192 494.031 221.122C492.791 220.972 491.561 220.802 490.341 220.612C487.891 220.232 485.451 219.802 483.031 219.292C478.191 218.252 473.391 216.982 468.721 215.342C464.051 213.712 459.471 211.712 455.261 209.092C451.101 206.442 447.191 203.142 444.751 198.852C447.581 202.882 451.611 205.782 455.871 208.042C460.181 210.242 464.741 211.902 469.401 213.182C474.061 214.472 478.821 215.392 483.611 216.082C486.001 216.432 488.401 216.732 490.811 216.962C492.011 217.072 493.211 217.182 494.411 217.252C494.991 217.282 495.661 217.352 496.131 217.322L497.911 217.252C507.401 216.952 516.991 215.142 525.171 210.902C529.261 208.802 532.961 206.052 535.971 202.722C536.341 202.302 536.731 201.892 537.071 201.452C537.401 201.032 537.841 200.522 537.981 200.262C538.381 199.632 538.651 198.932 538.721 198.202C538.891 196.742 538.401 195.222 537.391 194.252C537.261 194.132 537.151 194.002 537.001 193.902L536.431 193.452L534.801 192.132C534.271 191.682 533.821 191.212 533.331 190.752C532.851 190.282 532.361 189.822 531.931 189.342C530.151 187.432 528.501 185.472 526.961 183.462C523.861 179.462 521.061 175.332 518.351 171.162C512.991 162.802 508.051 154.252 503.301 145.622C493.931 128.272 485.261 110.692 476.981 92.7824L477.611 93.8223C475.341 91.0323 472.391 88.6923 468.991 86.8923C465.581 85.0923 461.791 83.7823 457.861 82.8823L456.301 82.5423C454.721 82.2223 453.051 81.2424 451.981 79.8324C450.881 78.4324 450.341 76.7124 450.411 74.9424C450.451 73.1824 451.241 71.3324 452.511 70.0624C452.821 69.7424 453.161 69.4524 453.501 69.2124L454.171 68.7623L454.791 68.3424L456.031 67.5024C456.861 66.9424 457.711 66.4323 458.491 65.7623L460.901 63.8724C461.711 63.2624 462.461 62.5024 463.241 61.8324C464.011 61.1324 464.801 60.4723 465.551 59.7323L467.781 57.5024C473.711 51.5124 479.091 44.7824 484.191 37.8324C489.281 30.8724 494.061 23.6224 498.611 16.2224C500.861 12.5124 503.111 8.78237 505.251 5.00237L505.451 4.65236L505.501 4.56237L505.521 4.52236L505.461 4.63234C505.381 4.78234 505.311 4.94234 505.261 5.10234C504.991 5.82234 504.961 6.83236 505.261 7.65236C505.551 8.47236 506.051 9.06237 506.611 9.47237C507.181 9.87237 507.871 10.1424 508.701 10.1724C509.521 10.2024 510.401 9.91236 510.981 9.49236C511.121 9.40236 511.251 9.29236 511.361 9.18236C511.411 9.13236 511.391 9.15235 511.371 9.17235L511.331 9.21236L511.251 9.28237L510.921 9.57234L509.601 10.7124L506.961 12.9924C506.081 13.7524 505.211 14.5324 504.271 15.1824C497.001 20.9324 489.011 25.4724 480.831 29.3924C472.631 33.3024 464.181 36.5224 455.591 39.2124L452.371 40.2124L449.121 41.1323C446.961 41.7723 444.771 42.2823 442.601 42.8523C438.201 43.9023 433.901 44.8823 429.271 45.6023L428.861 45.6623L428.561 45.6524C425.991 45.5724 423.831 45.0424 421.771 44.4424C419.721 43.8224 417.811 43.0623 415.961 42.2623C412.251 40.6423 408.771 38.7824 405.371 36.8324C401.971 34.8824 398.671 32.8124 395.431 30.6824C392.181 28.5324 389.021 26.3624 385.841 24.0224L386.251 24.2824C382.001 21.9724 377.461 20.3224 372.871 20.2824C368.311 20.2224 363.791 21.7324 360.001 24.5824C359.521 24.9324 359.061 25.3024 358.611 25.6824C358.361 25.8824 358.201 26.0424 358.041 26.1924C357.881 26.3624 357.721 26.5224 357.581 26.7024C357.001 27.4124 356.561 28.2524 356.311 29.1524C356.061 30.0524 356.001 31.0224 356.131 31.9624C356.171 32.2024 356.211 32.4323 356.271 32.6623C356.301 32.8623 356.441 33.2424 356.531 33.5224L357.101 35.3424C358.631 40.2024 360.661 44.9024 363.351 49.1924C366.031 53.4924 369.381 57.3623 373.321 60.5723C377.261 63.7823 381.791 66.2924 386.631 68.0824C389.061 68.9524 391.561 69.6424 394.101 70.1924C396.651 70.6924 399.241 71.0624 401.841 71.2724C407.021 71.7524 412.311 71.5623 417.521 70.6723Z" fill="white"/>
<path d="M398.921 174.342C396.981 173.462 395.111 172.402 393.341 171.242C391.551 170.092 389.831 168.822 388.171 167.482C384.851 164.792 381.781 161.752 379.031 158.372C376.281 154.982 373.871 151.222 372.011 147.062C371.781 146.542 371.531 146.032 371.321 145.502L370.751 143.872L370.181 142.232L369.731 140.532C369.581 139.962 369.451 139.392 369.321 138.822C369.211 138.242 369.141 137.642 369.051 137.062L368.801 135.292C368.731 134.702 368.731 134.092 368.701 133.492L368.661 131.682C368.641 131.082 368.741 130.472 368.771 129.862C368.881 128.652 368.941 127.432 369.251 126.232C369.721 123.832 370.521 121.502 371.531 119.302C373.551 114.872 376.691 111.232 380.101 108.282C387.031 102.412 395.151 99.0424 403.531 97.6424C401.921 99.0624 400.301 100.392 398.671 101.642C397.121 103.022 395.551 104.302 394.031 105.622L391.851 107.672L390.761 108.672C390.401 109.002 390.091 109.382 389.751 109.732C389.101 110.452 388.421 111.142 387.761 111.822C387.121 112.522 386.581 113.312 385.971 114.012C383.691 116.952 381.721 119.962 380.631 123.192C380.091 124.792 379.591 126.392 379.391 128.062C379.191 128.872 379.181 129.712 379.121 130.552C379.111 130.972 379.021 131.382 379.061 131.812L379.121 133.082C379.381 139.882 382.141 146.982 385.811 153.832C389.521 160.702 394.091 167.382 398.921 174.342Z" fill="white"/>
<path d="M485.981 44.1924C494.811 40.7924 502.921 36.6924 509.771 31.4324C510.651 30.8024 511.461 30.1124 512.261 29.4124C513.091 28.7424 513.851 28.0124 514.611 27.2824L515.181 26.7424L515.471 26.4724L515.691 26.2824C515.821 26.1824 515.941 26.0824 516.081 25.9824C516.331 25.7924 516.651 25.6124 516.961 25.4624C518.241 24.8424 519.821 24.7124 521.131 25.1124C522.451 25.5024 523.631 26.3124 524.461 27.5424C525.311 28.7524 525.651 30.5124 525.361 31.9124C525.331 32.0824 525.291 32.2524 525.241 32.4124L525.121 32.8024L525.051 33.0224L524.911 33.4624L524.361 35.2024C523.581 37.5024 522.691 39.7624 521.751 41.9924C520.791 44.2224 519.711 46.3924 518.611 48.5524C514.081 57.1224 508.111 64.9924 500.921 71.5224C493.651 77.9424 485.141 83.0824 475.891 85.4224C483.081 79.1824 489.401 72.8124 494.961 65.8724C500.461 58.8924 505.231 51.4624 509.381 43.6624C510.421 41.7124 511.421 39.7424 512.361 37.7424C513.351 35.7624 514.211 33.7224 515.111 31.7124L515.751 30.1924L515.911 29.8124L515.991 29.6224L516.001 29.6024L515.981 29.6724L515.941 29.8124C515.911 29.9124 515.891 30.0024 515.881 30.1024C515.711 30.9324 515.931 32.0724 516.451 32.8024C516.971 33.5524 517.641 34.0024 518.411 34.2224C519.171 34.4424 520.141 34.3724 520.891 33.9924C521.071 33.9124 521.261 33.7824 521.401 33.6824C521.471 33.6324 521.551 33.5724 521.611 33.5124L521.711 33.4224L521.661 33.4624L521.281 33.7424L520.511 34.3124C519.491 35.0724 518.481 35.8324 517.391 36.4724C516.321 37.1424 515.251 37.7924 514.131 38.3524C509.711 40.6824 505.041 42.3224 500.301 43.3224C495.561 44.2624 490.741 44.7324 485.981 44.1924Z" fill="white"/>
<path d="M366.341 241.152C366.881 249.782 366.021 258.622 363.461 267.052C360.901 275.472 356.761 283.492 351.151 290.432C345.591 297.412 338.531 303.172 330.741 307.562C322.911 311.902 314.281 314.782 305.441 316.122C296.601 317.382 287.541 317.252 278.761 315.462C270.021 313.612 261.571 310.282 254.091 305.462C239.061 295.922 227.971 280.652 223.661 263.862C230.181 279.892 241.761 293.422 256.321 301.792C270.881 310.172 288.111 313.252 304.621 310.682C312.881 309.532 320.901 306.872 328.251 302.992C335.641 299.152 342.281 293.902 347.871 287.672C353.411 281.392 357.841 274.092 360.911 266.182C364.081 258.282 365.671 249.772 366.341 241.152Z" fill="white"/>
</svg>
